<?xml version="1.0" standalone="no"?><!DOCTYPE svg PUBLIC "-//W3C//DTD SVG 1.1//EN" "http://www.w3.org/Graphics/SVG/1.1/DTD/svg11.dtd"><svg t="1648614558199" class="icon" viewBox="0 0 1024 1024" version="1.1" xmlns="http://www.w3.org/2000/svg" p-id="1451" xmlns:xlink="http://www.w3.org/1999/xlink" width="200" height="200"><defs><style type="text/css">@font-face { font-family: feedback-iconfont; src: url("//at.alicdn.com/t/font_1031158_u69w8yhxdu.woff2?t=1630033759944") format("woff2"), url("//at.alicdn.com/t/font_1031158_u69w8yhxdu.woff?t=1630033759944") format("woff"), url("//at.alicdn.com/t/font_1031158_u69w8yhxdu.ttf?t=1630033759944") format("truetype"); }
</style></defs><path d="M563.6 704.8c-61.8 0-111.8 50.1-111.8 111.8 0 61.8 50.1 111.8 111.8 111.8 61.8 0 111.8-50.1 111.8-111.8 0-61.7-50-111.8-111.8-111.8z m-8.6 43c-23.7 0-43 19.3-43 43h-17.2c0-33.2 27-60.2 60.2-60.2v17.2zM314.1 154.3c-114 0-206.5 92.4-206.5 206.5 0 114 92.4 206.5 206.5 206.5 114 0 206.5-92.4 206.5-206.5s-92.4-206.5-206.5-206.5z m-34.4 60.2c-28.8 0-56.2 10.9-77 30.8-6.1 5.8-11.6 12.3-16.3 19.4-3.6 5.5-6.8 11.3-9.4 17.3-6.1 14-9.1 29-9.1 44.4h-17.2c0-17.8 3.6-35 10.6-51.2 3-7 6.7-13.7 10.8-20 5.4-8.1 11.7-15.6 18.8-22.4 24.1-22.9 55.6-35.5 88.9-35.5v17.2z" fill="#D5D4FD" p-id="1452"></path><path d="M899.1 919.9H350v-17.2h549.1v17.2z m-639.5 0h-65.9v-17.2h65.9v17.2z" fill="#D5D4FD" p-id="1453"></path><path d="M881.9 902.7H332.8v-17.2h549.1v17.2z m-639.5 0h-65.9v-17.2h65.9v17.2z" fill="#FEB3B7" p-id="1454"></path><path d="M883.6 525.3c11.9 14.8 9.4 36.5-5.4 48.4L663.1 745.5c-14.8 11.9-36.5 9.4-48.4-5.4-11.9-14.8-9.4-36.5 5.4-48.4l215.1-171.8c14.9-11.8 36.5-9.4 48.4 5.4zM400.2 469.8c16.5-9.5 37.5-3.9 47 12.6l137.6 238.4c9.5 16.5 3.9 37.5-12.6 47s-37.5 3.9-47-12.6L387.6 516.8c-9.5-16.4-3.9-37.5 12.6-47z" fill="#D5D4FD" p-id="1455"></path><path d="M899.1 464c28.5 0 51.6 23.1 51.6 51.6s-23.1 51.6-51.6 51.6-51.6-23.1-51.6-51.6 23.1-51.6 51.6-51.6z" fill="#D5D4FD" p-id="1456"></path><path d="M641.6 727.2c-12.6 0-25.2-5.5-33.7-16.2-14.8-18.5-11.8-45.7 6.8-60.5l215.1-171.8c18.5-14.8 45.7-11.8 60.5 6.8 14.8 18.5 11.8 45.7-6.8 60.5L668.4 717.8c-7.9 6.3-17.4 9.4-26.8 9.4z m215.1-240.6c-5.6 0-11.3 1.8-16.1 5.6L625.5 664c-11.1 8.9-12.9 25.2-4.1 36.3 8.9 11.1 25.2 12.9 36.3 4.1l215.1-171.8c11.1-8.9 12.9-25.2 4.1-36.3-5.1-6.4-12.6-9.7-20.2-9.7zM503.5 763.8c-14.9 0-29.4-7.7-37.3-21.5L328.5 503.9c-11.9-20.5-4.8-46.9 15.8-58.8 20.6-11.8 46.9-4.8 58.8 15.7l137.6 238.4c11.9 20.5 4.8 46.9-15.7 58.8-6.9 4-14.2 5.8-21.5 5.8zM365.7 456.6c-4.4 0-8.8 1.1-12.9 3.5-6 3.4-10.2 9-12 15.7-1.8 6.7-0.9 13.6 2.6 19.6L481 733.7c7.1 12.3 22.9 16.6 35.3 9.4 6-3.4 10.2-9 12-15.7 1.8-6.7 0.9-13.6-2.6-19.6L388.1 469.5c-4.8-8.3-13.5-12.9-22.4-12.9z" fill="#FEB3B7" p-id="1457"></path><path d="M279.7 541.4c-118.6 0-215.1-96.5-215.1-215.1s96.5-215.1 215.1-215.1 215.1 96.5 215.1 215.1-96.5 215.1-215.1 215.1z m0-412.9c-109.1 0-197.9 88.8-197.9 197.9s88.8 197.9 197.9 197.9 197.9-88.8 197.9-197.9-88.8-197.9-197.9-197.9zM537.8 902.7c-71.2 0-129-57.9-129-129s57.9-129 129-129 129 57.9 129 129-57.8 129-129 129z m0-240.9C476.1 661.8 426 712 426 773.7s50.2 111.8 111.8 111.8 111.8-50.2 111.8-111.8-50.1-111.9-111.8-111.9zM881.9 575.8c-42.7 0-77.4-34.7-77.4-77.4s34.7-77.4 77.4-77.4 77.4 34.7 77.4 77.4-34.7 77.4-77.4 77.4z m0-137.6c-33.2 0-60.2 27-60.2 60.2s27 60.2 60.2 60.2 60.2-27 60.2-60.2-27-60.2-60.2-60.2z" fill="#FEB3B7" p-id="1458"></path></svg>