<?xml version="1.0" standalone="no"?>
<!DOCTYPE svg PUBLIC "-//W3C//DTD SVG 20010904//EN"
 "http://www.w3.org/TR/2001/REC-SVG-20010904/DTD/svg10.dtd">
<svg version="1.0" xmlns="http://www.w3.org/2000/svg"
 width="400.000000pt" height="400.000000pt" viewBox="0 0 400.000000 400.000000"
 preserveAspectRatio="xMidYMid meet">
<metadata>
Created by potrace 1.14, written by Peter Selinger 2001-2017
</metadata>
<g transform="translate(0.000000,400.000000) scale(0.100000,-0.100000)"
fill="#000000" stroke="none">
<path d="M110 2267 c-51 -18 -76 -62 -83 -148 -5 -60 -3 -79 11 -104 31 -53
71 -65 253 -72 90 -3 172 -10 182 -15 20 -10 23 -48 5 -66 -8 -8 -55 -12 -144
-12 -107 0 -136 3 -148 16 -9 8 -16 21 -16 28 0 8 -23 18 -60 25 -33 7 -62 16
-65 21 -4 6 -11 10 -17 10 -6 0 -9 -27 -6 -76 3 -70 6 -78 32 -99 46 -36 101
-45 288 -45 190 0 233 7 269 46 21 22 24 37 28 115 6 153 -20 171 -254 176
-202 5 -205 5 -205 43 0 38 14 42 165 38 116 -3 120 -4 123 -25 3 -20 10 -23
43 -23 22 0 55 -7 74 -14 l35 -15 0 60 c0 132 -35 149 -293 148 -113 0 -195
-5 -217 -12z"/>
<path d="M664 2256 c-3 -8 -4 -104 -2 -213 5 -302 6 -303 317 -303 224 0 265
7 308 52 l28 29 3 220 3 219 -75 0 -76 0 0 -173 c0 -229 9 -217 -164 -217 -98
0 -137 4 -152 14 -17 13 -20 34 -29 197 l-10 184 -72 3 c-59 3 -74 1 -79 -12z"/>
<path d="M3482 2243 c-11 -16 -52 -92 -91 -170 -39 -79 -77 -143 -84 -143 -15
0 -46 20 -31 20 6 0 23 12 38 26 25 25 26 32 26 126 0 97 -1 100 -29 129 l-29
29 -286 0 -286 0 0 -260 0 -260 75 0 75 0 0 65 0 65 149 0 c108 0 151 -3 159
-13 6 -7 12 -35 14 -62 l3 -50 103 -3 102 -3 27 46 28 45 85 0 c47 0 123 -3
168 -7 83 -6 84 -7 100 -40 l16 -33 88 0 88 0 -130 260 -130 260 -114 0 c-114
0 -115 0 -134 -27z m181 -188 c26 -52 47 -97 47 -100 0 -3 -47 -5 -105 -5 -58
0 -105 3 -105 6 0 21 92 194 103 194 7 0 34 -43 60 -95z m-502 58 c17 -17 20
-28 15 -57 -4 -20 -15 -40 -26 -46 -12 -6 -76 -9 -157 -8 l-138 3 -3 54 c-5
86 -11 83 148 79 127 -3 141 -5 161 -25z"/>
<path d="M1930 2040 c0 -123 -4 -220 -9 -220 -5 0 -46 50 -91 110 -45 61 -84
110 -86 110 -2 0 -4 -60 -4 -132 l1 -133 162 -222 c89 -122 166 -222 171 -222
5 -1 6 56 3 136 -4 75 -7 284 -7 465 l0 328 -70 0 -70 0 0 -220z"/>
<path d="M2130 2000 l0 -260 270 0 270 0 0 60 0 60 -192 2 -193 3 -3 43 -3 42
190 0 191 0 0 60 0 60 -190 0 -190 0 0 35 0 35 195 0 195 0 0 60 0 60 -270 0
-270 0 0 -260z"/>
</g>
</svg>
