<svg xmlns="http://www.w3.org/2000/svg" width="51" height="98" viewBox="0 0 51 98" version="1.1"><path d="M 2 32.300 C 2 69.261, 12.542 85.325, 13.223 49.401 C 13.500 34.803, 13.500 34.803, 18.803 42.401 C 25.349 51.781, 25.005 51.873, 24.977 40.750 C 24.955 32.084, 14.277 13.096, 2.933 1.550 C 2.355 0.962, 2 12.663, 2 32.300" stroke="none" fill="#fde047" fill-rule="evenodd"/><path d="M 38.480 32.250 C 38.229 32.938, 37.906 39.334, 37.762 46.463 C 37.500 59.427, 37.500 59.427, 32.155 52.213 C 25.547 43.295, 26 43.104, 26 54.813 C 26 64.187, 36.482 82.858, 48.541 94.964 C 49.820 96.248, 50 92.384, 50 63.714 C 50 33.259, 44.050 17.008, 38.480 32.250" stroke="none" fill="#60a5fa" fill-rule="evenodd"/></svg>